# xmcd CD database file
#
# Track frame offsets:
#	150
#	16990
#	37522
#
# Disc length: 806 seconds
#
# Revision: 0
# Processed by: cddbd v1.4PL0 Copyright (c) Steve Scherf et al.
# Submitted via: CDex 1.51
#
DISCID=11032403
DTITLE=Enigma - Beyond The Invisible
DYEAR=1996
DGENRE=New Age
TTITLE0=Short Radio Edit
TTITLE1=Radio Edit
TTITLE2=Album Version
EXTD=YEAR: 1996
EXTT0=
EXTT1=
EXTT2=
PLAYORDER=
